<?xml version="1.0" encoding="UTF-8" standalone="no"?>
<!-- Created with Inkscape (http://www.inkscape.org/) -->

<svg
   width="186.72961mm"
   height="186.72961mm"
   viewBox="0 0 186.72961 186.72961"
   version="1.1"
   id="svg1"
   xml:space="preserve"
   inkscape:version="1.4.2 (f4327f4, 2025-05-13)"
   sodipodi:docname="hydrosync.svg"
   xmlns:inkscape="http://www.inkscape.org/namespaces/inkscape"
   xmlns:sodipodi="http://sodipodi.sourceforge.net/DTD/sodipodi-0.dtd"
   xmlns="http://www.w3.org/2000/svg"
   xmlns:svg="http://www.w3.org/2000/svg"><sodipodi:namedview
     id="namedview1"
     pagecolor="#505050"
     bordercolor="#eeeeee"
     borderopacity="1"
     inkscape:showpageshadow="0"
     inkscape:pageopacity="0"
     inkscape:pagecheckerboard="0"
     inkscape:deskcolor="#505050"
     inkscape:document-units="mm"
     inkscape:zoom="0.48693448"
     inkscape:cx="596.5895"
     inkscape:cy="372.74008"
     inkscape:window-width="1920"
     inkscape:window-height="991"
     inkscape:window-x="-9"
     inkscape:window-y="-9"
     inkscape:window-maximized="1"
     inkscape:current-layer="layer1" /><defs
     id="defs1" /><g
     inkscape:label="Layer 1"
     inkscape:groupmode="layer"
     id="layer1"
     transform="translate(-36.884865,-56.09573)"><rect
       style="fill:#8ba9b8;fill-opacity:1;fill-rule:evenodd;stroke-width:4.783;paint-order:markers fill stroke"
       id="rect1"
       width="186.72961"
       height="186.72961"
       x="36.884865"
       y="56.09573"
       inkscape:export-filename="rect1.svg"
       inkscape:export-xdpi="96"
       inkscape:export-ydpi="96" /><g
       style="fill:#e3e3e3"
       id="g1"
       transform="matrix(3.0719711,0,0,3.0719711,93.386019,112.59688)"><path
         d="m 12,4.67 c -4.05,3.7 -6,6.79 -6,9.14 0,3.63 2.65,6.2 6,6.2 3.35,0 6,-2.57 6,-6.2 0,-2.35 -1.95,-5.45 -6,-9.14 z m 0.28,14.32 C 10.15,19.12 7.66,17.9 7.09,14.87 7.01,14.42 7.37,14 7.83,14 c 0.37,0 0.67,0.26 0.74,0.62 0.41,2.23 2.28,2.98 3.64,2.87 0.43,-0.02 0.79,0.32 0.79,0.75 0,0.4 -0.32,0.73 -0.72,0.75 z"
         opacity="0.3"
         id="path1"
         style="fill:#37474f;fill-opacity:1;opacity:0.5" /><path
         d="M 12,2 C 6.67,6.55 4,10.48 4,13.8 4,18.78 7.8,22 12,22 16.2,22 20,18.78 20,13.8 20,10.48 17.33,6.55 12,2 Z m 0,18 C 8.65,20 6,17.43 6,13.8 6,11.46 7.95,8.36 12,4.66 c 4.05,3.7 6,6.79 6,9.14 0,3.63 -2.65,6.2 -6,6.2 z M 7.83,14 c 0.37,0 0.67,0.26 0.74,0.62 0.41,2.22 2.28,2.98 3.64,2.87 0.43,-0.02 0.79,0.32 0.79,0.75 0,0.4 -0.32,0.73 -0.72,0.75 C 10.15,19.12 7.66,17.9 7.09,14.87 7.01,14.42 7.37,14 7.83,14 Z"
         id="path2"
         style="opacity:1;fill:#37474f;fill-opacity:1" /></g><path
       d="m 130.24967,142.58368 v -1.09881 c 0,-0.27624 -0.33148,-0.41129 -0.52178,-0.21485 l -1.71881,1.71267 c -0.12278,0.12277 -0.12278,0.31307 0,0.43584 l 1.71267,1.71268 c 0.19644,0.1903 0.52792,0.0553 0.52792,-0.22099 v -1.09881 c 2.03189,0 3.68317,1.65128 3.68317,3.68317 0,0.48495 -0.0921,0.95762 -0.27009,1.38119 -0.0921,0.22099 -0.0246,0.47267 0.14118,0.63841 0.31307,0.31307 0.84099,0.20258 1.00674,-0.20871 0.22713,-0.55861 0.3499,-1.17248 0.3499,-1.81089 0,-2.71327 -2.19763,-4.9109 -4.9109,-4.9109 z m 0,8.59407 c -2.03188,0 -3.68317,-1.65129 -3.68317,-3.68317 0,-0.48495 0.0921,-0.95763 0.2701,-1.38119 0.0921,-0.22099 0.0245,-0.47268 -0.14119,-0.63842 -0.31307,-0.31307 -0.84099,-0.20257 -1.00673,0.20871 -0.22713,0.55862 -0.3499,1.17248 -0.3499,1.8109 0,2.71327 2.19762,4.91089 4.91089,4.91089 v 1.09882 c 0,0.27624 0.33149,0.41129 0.52179,0.21485 l 1.71267,-1.71268 c 0.12277,-0.12277 0.12277,-0.31307 0,-0.43584 l -1.71267,-1.71267 c -0.1903,-0.1903 -0.52179,-0.0553 -0.52179,0.22099 z"
       id="path2-8"
       style="fill:#8ba9b8;fill-opacity:1;stroke-width:0.613862;opacity:0.5"
       inkscape:export-filename="foreground.svg"
       inkscape:export-xdpi="96"
       inkscape:export-ydpi="96" /></g></svg>
